<svg width="12" height="12" viewBox="0 0 12 12" fill="none" xmlns="http://www.w3.org/2000/svg">
<path d="M0.421361 12.0004C0.309745 12.0004 0.203694 11.9558 0.125563 11.8777C0.0195277 11.7717 -0.0250908 11.6155 0.0139747 11.4704L0.71716 8.84272C0.248374 7.97239 0.00280198 6.99048 0.00280198 5.99742C0.00280198 2.68908 2.69274 0 6.00213 0C9.31154 0 12.0015 2.68908 12.0015 5.99742C12.0015 9.30577 9.31154 11.9949 6.00213 11.9949C4.99201 11.9949 4.00425 11.7438 3.12248 11.264L0.532983 11.9837C0.493917 11.9949 0.460427 12.0004 0.421361 12.0004ZM3.17827 10.3993C3.25082 10.3993 3.32338 10.4216 3.39035 10.4551C4.17724 10.9182 5.0813 11.1636 6.00213 11.1636C8.84833 11.1636 11.1644 8.8483 11.1644 6.003C11.1644 3.15773 8.84833 0.842436 6.00213 0.842436C3.15595 0.842436 0.839921 3.15773 0.839921 6.003C0.839921 6.91238 1.07989 7.79944 1.53193 8.5805C1.58774 8.67534 1.60449 8.79251 1.57659 8.89851L1.01851 10.9851L3.07224 10.416C3.10572 10.4048 3.14479 10.3993 3.17827 10.3993Z" fill="black"/>
<path d="M7.53076 9.21642C7.18475 9.21642 6.82758 9.13831 6.45367 8.97652C6.10208 8.82589 5.75049 8.62504 5.41006 8.37399C5.07522 8.12851 4.74599 7.84956 4.44463 7.54829C4.14326 7.24145 3.8642 6.91786 3.61864 6.58312C3.36751 6.23165 3.1666 5.88575 3.0215 5.54543C2.86523 5.17721 2.78711 4.81458 2.78711 4.46868C2.78711 4.2232 2.83174 3.98888 2.91546 3.7713C3.00475 3.54256 3.14986 3.33613 3.3396 3.15761C3.69677 2.80613 4.21023 2.67782 4.61763 2.87309C4.75714 2.93446 4.87434 3.03488 4.96366 3.16878L5.61097 4.07814C5.67794 4.16741 5.72822 4.26225 5.76729 4.35709C5.81194 4.46867 5.83984 4.58026 5.83984 4.68627C5.83984 4.83132 5.80072 4.97637 5.72259 5.10469C5.67236 5.18837 5.59981 5.28879 5.50494 5.38364L5.43239 5.46174C5.46587 5.50638 5.50494 5.56216 5.56633 5.62911C5.68352 5.76301 5.81188 5.90806 5.9514 6.04754C6.09092 6.18143 6.23044 6.31533 6.36996 6.43249C6.43693 6.48828 6.49279 6.53291 6.53744 6.56081L6.61551 6.4827C6.71597 6.38228 6.81648 6.30417 6.91693 6.25396C7.1011 6.1368 7.38566 6.10891 7.6368 6.21491C7.72609 6.24838 7.81538 6.29859 7.91026 6.36554L8.84231 7.02387C8.97066 7.11313 9.07106 7.23587 9.13803 7.37534C9.19384 7.51482 9.21622 7.63756 9.21622 7.76587C9.21622 7.93324 9.1771 8.09504 9.10455 8.25125C9.032 8.3963 8.94829 8.52462 8.84783 8.64178C8.66925 8.83704 8.46281 8.9821 8.23958 9.07694C8.01635 9.17178 7.77632 9.21642 7.53076 9.21642ZM4.21021 3.62624C4.17672 3.62624 4.06513 3.62624 3.92561 3.76572C3.81958 3.86614 3.74701 3.97215 3.69678 4.08931C3.64656 4.20647 3.62423 4.34037 3.62423 4.47426C3.62423 4.70858 3.68003 4.95963 3.79165 5.22742C3.90884 5.50638 4.08186 5.80206 4.29393 6.09775C4.51158 6.39344 4.75714 6.68913 5.03063 6.9625C5.30408 7.23029 5.59423 7.48134 5.89559 7.7045C6.18579 7.91651 6.48163 8.08388 6.77741 8.21219C7.20155 8.3963 7.59215 8.44093 7.91026 8.30704C8.02187 8.26241 8.12233 8.1843 8.22278 8.08388C8.27301 8.02809 8.31213 7.9723 8.34561 7.89977C8.36236 7.86072 8.37346 7.81608 8.37346 7.77703C8.37346 7.76587 8.37346 7.74914 8.35672 7.71566L7.42473 7.0685C7.38566 7.0406 7.3466 7.01829 7.31311 7.00713C7.29079 7.01829 7.25736 7.03502 7.19597 7.09639L6.9839 7.30839C6.82206 7.47019 6.56534 7.51482 6.35885 7.44229L6.2584 7.39766C6.13004 7.33071 5.98488 7.23029 5.82304 7.09081C5.66678 6.95692 5.51615 6.81744 5.35431 6.66123C5.19805 6.49944 5.05853 6.34881 4.92459 6.19259C4.77946 6.01964 4.67901 5.88017 4.61204 5.76301L4.55066 5.61796C4.53392 5.56217 4.52832 5.5008 4.52832 5.44501C4.52832 5.28879 4.58415 5.14932 4.69018 5.03774L4.90227 4.82016C4.96366 4.75879 4.98598 4.72532 4.99714 4.703C4.9804 4.66395 4.95808 4.63047 4.93017 4.59142L4.27717 3.67089L4.21021 3.62624Z" fill="black"/>
</svg>
