<svg width="21" height="21" viewBox="0 0 21 21" fill="none" xmlns="http://www.w3.org/2000/svg">
<path d="M10.5 0C4.725 0 0 4.725 0 10.5C0 16.275 4.725 21 10.5 21C16.275 21 21 16.275 21 10.5C21 4.725 16.275 0 10.5 0ZM10.5 2.625C14.8575 2.625 18.375 6.1425 18.375 10.5C18.375 14.8575 14.8575 18.375 10.5 18.375C6.1425 18.375 2.625 14.8575 2.625 10.5C2.625 6.1425 6.1425 2.625 10.5 2.625ZM9.1875 5.25V11.0775L9.6075 11.4187L10.92 12.7312L11.8125 13.7288L13.7025 11.8388L12.705 10.9462L11.8125 10.0538V5.3025H9.1875V5.25Z" fill="#D2D2D2"/>
</svg>
