<svg width="7" height="11" viewBox="0 0 7 11" fill="none" xmlns="http://www.w3.org/2000/svg">
<path d="M6.40852 0C6.55477 0 6.66113 0.106364 6.66113 0.252615V10.3971C6.66113 10.5434 6.55477 10.6497 6.40852 10.6497H0.252678C0.106427 10.6497 6.24657e-05 10.5434 6.24657e-05 10.3971V0.252615C6.24657e-05 0.106364 0.106427 0 0.252678 0L6.40852 0ZM5.33158 1.32955H1.34291V7.97733H5.33158V1.32955ZM3.33725 8.64211C2.96497 8.64211 2.67247 8.93461 2.67247 9.30688C2.67247 9.67916 2.96497 9.97166 3.33725 9.97166C3.70952 9.97166 4.00202 9.67916 4.00202 9.30688C4.00202 8.93461 3.70952 8.64211 3.33725 8.64211Z" fill="black"/>
</svg>
