<svg width="22" height="16" viewBox="0 0 22 16" fill="none" xmlns="http://www.w3.org/2000/svg">
<path d="M10.7467 0C4 0 0 8 0 8C0 8 4 16 10.7467 16C17.3333 16 21.3333 8 21.3333 8C21.3333 8 17.3333 0 10.7467 0ZM10.6667 2.66667C13.6267 2.66667 16 5.06667 16 8C16 10.96 13.6267 13.3333 10.6667 13.3333C7.73333 13.3333 5.33333 10.96 5.33333 8C5.33333 5.06667 7.73333 2.66667 10.6667 2.66667ZM10.6667 5.33333C9.2 5.33333 8 6.53333 8 8C8 9.46667 9.2 10.6667 10.6667 10.6667C12.1333 10.6667 13.3333 9.46667 13.3333 8C13.3333 7.73333 13.2267 7.49333 13.1733 7.25333C12.96 7.68 12.5333 8 12 8C11.2533 8 10.6667 7.41333 10.6667 6.66667C10.6667 6.13333 10.9867 5.70667 11.4133 5.49333C11.1733 5.41333 10.9333 5.33333 10.6667 5.33333Z" fill="#D2D2D2"/>
</svg>
