<svg width="14" height="14" viewBox="0 0 14 14" fill="none" xmlns="http://www.w3.org/2000/svg">
<path d="M0.49157 14C0.361357 14 0.237634 13.9479 0.146485 13.8568C0.0227815 13.7331 -0.0292716 13.5509 0.0163033 13.3817L0.836656 10.3161C0.289759 9.30078 0.00326885 8.15527 0.00326885 6.99674C0.00326885 3.13715 3.14142 0 7.00223 0C10.8631 0 14.0012 3.13715 14.0012 6.99674C14.0012 10.8563 10.8631 13.9935 7.00223 13.9935C5.8238 13.9935 4.67145 13.7006 3.64276 13.1409L0.621791 13.9805C0.576216 13.9935 0.537145 14 0.49157 14ZM3.70785 12.132C3.79249 12.132 3.87713 12.1581 3.95526 12.1972C4.87327 12.7374 5.92797 13.0237 7.00223 13.0237C10.3227 13.0237 13.0246 10.3226 13.0246 7.00324C13.0246 3.68388 10.3227 0.982807 7.00223 0.982807C3.68181 0.982807 0.979872 3.68388 0.979872 7.00324C0.979872 8.06415 1.25982 9.09902 1.78719 10.0102C1.8523 10.1209 1.87184 10.2576 1.83929 10.3812L1.18822 12.8154L3.58415 12.1516C3.62321 12.1385 3.66879 12.132 3.70785 12.132Z" fill="white"/>
<path d="M8.78602 10.7517C8.38235 10.7517 7.96567 10.6606 7.52945 10.4719C7.11928 10.2961 6.70911 10.0618 6.31196 9.76893C5.92131 9.48255 5.53723 9.15712 5.18565 8.80565C4.83408 8.44768 4.50851 8.07018 4.22204 7.67966C3.92906 7.26962 3.69467 6.86609 3.5254 6.46906C3.3431 6.03949 3.25195 5.61643 3.25195 5.2129C3.25195 4.92652 3.30403 4.65316 3.40169 4.39932C3.50586 4.13247 3.67514 3.89165 3.8965 3.68337C4.31319 3.27333 4.9122 3.12364 5.38748 3.35144C5.55024 3.42304 5.68697 3.54019 5.79117 3.6964L6.54634 4.75729C6.62447 4.86143 6.68313 4.97207 6.7287 5.08272C6.78079 5.21289 6.81334 5.34308 6.81334 5.46674C6.81334 5.63597 6.7677 5.80518 6.67655 5.95488C6.61796 6.05251 6.53332 6.16967 6.42264 6.28031L6.338 6.37143C6.37706 6.4235 6.42264 6.48859 6.49425 6.56669C6.63098 6.7229 6.78073 6.89212 6.94349 7.05484C7.10626 7.21104 7.26903 7.36725 7.43179 7.50393C7.50992 7.56902 7.57509 7.62108 7.62718 7.65363L7.71826 7.56251C7.83546 7.44535 7.95271 7.35423 8.06991 7.29565C8.28476 7.15897 8.61674 7.12643 8.90972 7.25009C9.01389 7.28915 9.11806 7.34772 9.22874 7.42583L10.3161 8.19384C10.4658 8.29798 10.583 8.44117 10.6611 8.60388C10.7262 8.7666 10.7523 8.90979 10.7523 9.05949C10.7523 9.25475 10.7067 9.4435 10.622 9.62574C10.5374 9.79496 10.4397 9.94466 10.3225 10.0813C10.1142 10.3091 9.87337 10.4784 9.61294 10.589C9.35251 10.6997 9.07249 10.7517 8.78602 10.7517ZM4.91217 4.23009C4.87311 4.23009 4.74293 4.23009 4.58016 4.39281C4.45646 4.50996 4.3718 4.63364 4.3132 4.77032C4.25461 4.907 4.22856 5.06321 4.22856 5.21941C4.22856 5.49278 4.29366 5.78566 4.42387 6.09807C4.56059 6.4235 4.76245 6.76846 5.00985 7.11341C5.26377 7.45837 5.55024 7.80333 5.86929 8.12225C6.18832 8.43466 6.52681 8.72755 6.87839 8.98789C7.21694 9.23522 7.56207 9.43048 7.90714 9.58018C8.40195 9.79496 8.85763 9.84703 9.22874 9.69082C9.35896 9.63875 9.47615 9.54763 9.59334 9.43048C9.65194 9.36539 9.69758 9.30031 9.73664 9.21569C9.75617 9.17013 9.76913 9.11806 9.76913 9.0725C9.76913 9.05949 9.76913 9.03996 9.7496 9.00091L8.66231 8.24591C8.61674 8.21337 8.57116 8.18733 8.5321 8.17432C8.50606 8.18733 8.46706 8.20686 8.39544 8.27845L8.14803 8.52578C7.95922 8.71453 7.65973 8.7666 7.41884 8.68199L7.30165 8.62992C7.1519 8.55182 6.98256 8.43466 6.79375 8.27195C6.61145 8.11574 6.43572 7.95302 6.24691 7.77078C6.06461 7.58203 5.90185 7.4063 5.74559 7.22406C5.57628 7.02229 5.45909 6.85958 5.38096 6.7229L5.30936 6.55367C5.28982 6.48859 5.28329 6.41699 5.28329 6.35191C5.28329 6.16966 5.34842 6.00695 5.47212 5.87678L5.71955 5.62294C5.79117 5.55135 5.81721 5.5123 5.83023 5.48627C5.8107 5.44071 5.78466 5.40165 5.7521 5.35609L4.9903 4.28217L4.91217 4.23009Z" fill="white"/>
</svg>
