<svg width="104" height="104" viewBox="0 0 104 104" fill="none" xmlns="http://www.w3.org/2000/svg">
<path d="M89.4745 55.0272C89.5668 54.2325 89.868 53.6203 90.3782 53.1905C90.8873 52.7702 91.5157 52.5604 92.2635 52.5609C92.7432 52.5591 93.1675 52.5796 93.5364 52.6225C93.9149 52.6664 94.3326 52.7437 94.7896 52.8543C95.5176 53.0252 96.0812 53.3735 96.4804 53.8993C96.8785 54.4345 97.0314 55.0995 96.9391 55.8942C96.8929 56.2916 96.8002 56.6356 96.661 56.9262C96.5312 57.218 96.3383 57.5168 96.0822 57.8226L95.1994 57.3749C95.4121 57.112 95.5759 56.8577 95.6907 56.6122C95.8055 56.3666 95.8805 56.0925 95.9156 55.7897C95.9739 55.2883 95.8739 54.8692 95.6158 54.5324C95.3661 54.2061 95.0252 54.0035 94.5933 53.9246C94.1331 53.8424 93.7137 53.7793 93.3353 53.7353C93.0041 53.6969 92.6288 53.6677 92.2092 53.6477C91.7696 53.635 91.3862 53.7582 91.0588 54.0175C90.7409 54.2778 90.5529 54.6587 90.4946 55.1601C90.4232 55.775 90.5265 56.3719 90.8044 56.9507L89.915 57.1782C89.7119 56.7807 89.5764 56.4198 89.5086 56.0955C89.4408 55.7712 89.4294 55.4151 89.4745 55.0272Z" fill="white"/>
<path d="M95.5098 64.4127L95.1347 65.3088L90.3862 65.9232C90.2851 65.9428 90.2253 65.9746 90.2069 66.0185C90.1812 66.08 90.2005 66.1449 90.2648 66.2131L93.16 70.0268L92.7849 70.923L86.1955 68.1649L86.6258 67.1369L90.2367 68.6484L91.0118 69.1277L91.0382 69.1387C91.0997 69.1645 91.1396 69.1554 91.158 69.1114C91.169 69.0851 91.1574 69.0389 91.1231 68.9729L88.8039 65.8184L89.0797 65.1595L92.9544 64.5976C93.0182 64.5933 93.0574 64.5736 93.0721 64.5384C93.0832 64.5121 93.0792 64.4846 93.0602 64.456C93.05 64.4311 93.0254 64.4156 92.9866 64.4097L92.1012 64.194L88.4902 62.6825L88.9205 61.6546L95.5098 64.4127Z" fill="white"/>
<path d="M82.3756 74.2173C82.8741 73.5915 83.4535 73.2311 84.1137 73.136C84.768 73.0484 85.4087 73.1995 86.0357 73.5894C86.4289 73.8296 86.7708 74.0654 87.0613 74.2968C87.3593 74.5342 87.673 74.8206 88.0024 75.1561C88.5301 75.686 88.8206 76.2767 88.874 76.9281C88.929 77.5929 88.7072 78.2381 88.2087 78.8639C87.7102 79.4897 87.1338 79.8464 86.4795 79.934C85.8267 80.035 85.1831 79.8876 84.5486 79.4918C84.148 79.2457 83.7987 79.004 83.5007 78.7666C83.2101 78.5351 82.9039 78.2547 82.5819 77.9251C82.0617 77.4011 81.7741 76.8067 81.7192 76.1419C81.6583 75.4846 81.8771 74.8431 82.3756 74.2173ZM83.1467 74.8315C82.8381 75.2189 82.7065 75.6133 82.752 76.0148C82.7989 76.4298 82.9819 76.7886 83.3008 77.0914C83.5751 77.3585 83.8724 77.6197 84.1927 77.8749C84.5205 78.136 84.849 78.3733 85.1782 78.5868C85.5446 78.83 85.9315 78.9252 86.339 78.8723C86.7479 78.8327 87.1067 78.6193 87.4153 78.2319C87.7298 77.8371 87.8636 77.4322 87.8166 77.0173C87.7771 76.6083 87.5949 76.2562 87.27 75.9608C86.9451 75.6655 86.6374 75.4021 86.3469 75.1707C86.0266 74.9155 85.7055 74.6841 85.3838 74.4766C85.004 74.2349 84.6133 74.1368 84.2118 74.1822C83.8103 74.2277 83.4553 74.4441 83.1467 74.8315Z" fill="white"/>
<path d="M80.8652 85.0924L82.5811 83.7153L83.207 84.4953L78.8839 87.9648L78.258 87.1849L79.9738 85.8078L76.1287 81.0168L77.02 80.3014L80.8652 85.0924Z" fill="white"/>
<path d="M75.172 90.601L74.144 91.1005L73.9692 90.7407C73.8686 90.9696 73.7021 91.1935 73.4696 91.4123C73.2412 91.6397 72.9771 91.8263 72.6773 91.972C71.9577 92.3216 71.3008 92.3972 70.7067 92.1987C70.104 92.0045 69.6083 91.5835 69.2195 90.9359C69.0021 90.5756 68.8019 90.207 68.6187 89.83C68.4439 89.4702 68.2758 89.0807 68.1145 88.6614C67.8456 87.9555 67.819 87.3013 68.0346 86.6989C68.2457 86.1092 68.7111 85.6395 69.4307 85.2899C69.6106 85.2025 69.8266 85.124 70.0788 85.0545L70.9211 85.1535C70.9678 85.1625 71.0126 85.1567 71.0554 85.1359C71.0983 85.115 71.1285 85.0792 71.1461 85.0283C71.1552 84.9815 71.1472 84.9324 71.1222 84.881L69.7737 82.1054L70.8017 81.6059L75.172 90.601ZM69.9709 86.1075C69.4912 86.3406 69.1938 86.6439 69.0788 87.0175C68.9553 87.3952 68.9783 87.8022 69.148 88.2386C69.3054 88.6281 69.4757 89.0113 69.6589 89.3882C69.8212 89.7223 69.9964 90.0502 70.1844 90.3718C70.724 91.2426 71.4478 91.4575 72.3559 91.0163C72.8014 90.7998 73.0984 90.5285 73.2469 90.2022C73.3996 89.8844 73.3907 89.5499 73.22 89.1987L71.9464 86.5773C71.7757 86.226 71.5141 86.0037 71.1616 85.9102C70.8133 85.8253 70.4164 85.8911 69.9709 86.1075Z" fill="white"/>
<path d="M61.5434 89.3087C60.845 89.4585 60.2624 89.8076 59.7955 90.3559L59.2775 89.5757C59.6086 89.2124 59.9205 88.9409 60.2132 88.7613C60.5078 88.5909 60.8833 88.4567 61.3396 88.3588C62.1591 88.183 62.8486 88.2639 63.4081 88.6017C63.9677 88.9394 64.3719 89.4615 64.6209 90.1679C64.7727 90.6029 64.8876 91.002 64.9655 91.3652C65.0455 91.7377 65.1065 92.1581 65.1485 92.6264C65.2166 93.3521 65.0704 93.9874 64.71 94.5323C64.3403 95.0792 63.7783 95.4336 63.024 95.5955C62.0183 95.8113 61.2659 95.6416 60.7668 95.0863C60.2697 94.5403 59.9313 93.8482 59.7514 93.0101L59.8719 92.2098L63.842 91.3725C63.7721 91.0466 63.6865 90.7386 63.5853 90.4486C63.4448 90.0209 63.2039 89.6927 62.8626 89.4639C62.5233 89.2445 62.0835 89.1928 61.5434 89.3087ZM62.8142 94.6177C63.2891 94.5158 63.6353 94.2905 63.8527 93.9419C64.0701 93.5932 64.1525 93.2054 64.0998 92.7783C64.0825 92.6067 64.0608 92.4604 64.0349 92.3393L60.864 93.0198C61.1398 94.3049 61.7898 94.8375 62.8142 94.6177Z" fill="white"/>
<path d="M53.1413 95.7557L55.3412 95.7896L55.3258 96.7896L49.7832 96.704L49.7987 95.7041L51.9985 95.738L52.0934 89.5955L53.2362 89.6132L53.1413 95.7557Z" fill="white"/>
<path d="M45.2444 96.3584L44.1347 96.0847L44.7575 93.5602L43.2733 93.1941C42.4965 93.0025 41.9388 92.6589 41.5999 92.1633C41.2611 91.6677 41.1773 91.0731 41.3483 90.3796C41.5194 89.686 41.8702 89.1987 42.4006 88.9175C42.931 88.6363 43.5846 88.5916 44.3614 88.7832L46.9552 89.423L45.2444 96.3584ZM44.1219 89.7541C43.6873 89.6469 43.327 89.6758 43.0411 89.8407C42.7459 90.0033 42.5515 90.2742 42.458 90.6533C42.3645 91.0324 42.4106 91.3626 42.5962 91.6439C42.7727 91.9228 43.0782 92.1159 43.5128 92.2231L44.997 92.5892L45.606 90.1202L44.1219 89.7541Z" fill="white"/>
<path d="M29.5649 81.7442C30.1815 82.254 30.5313 82.8398 30.6144 83.5017C30.6901 84.1575 30.5243 84.7989 30.1169 85.4261C29.8575 85.8295 29.6095 86.1744 29.3728 86.4607C29.13 86.7543 28.8379 87.0627 28.4965 87.386C27.9571 87.9039 27.3582 88.1873 26.6998 88.2362C26.0342 88.279 25.393 88.0455 24.7765 87.5357C24.4682 87.2808 24.2299 87.0159 24.0618 86.7409C23.8876 86.4733 23.7418 86.1489 23.6245 85.7677L24.4805 85.2705C24.5854 85.592 24.7096 85.8677 24.8532 86.0977C24.9968 86.3276 25.186 86.5397 25.4209 86.7339C25.8099 87.0555 26.216 87.1997 26.639 87.1663C27.0486 87.1343 27.404 86.9585 27.7052 86.6391C28.0246 86.2976 28.3057 85.98 28.5485 85.6864C28.7609 85.4295 28.9896 85.1305 29.2346 84.7893C29.4844 84.4274 29.5896 84.0385 29.5502 83.6229C29.5048 83.2145 29.2875 82.8495 28.8985 82.5278C28.4213 82.1333 27.8643 81.8953 27.2274 81.8136L27.5204 80.9436C27.9645 80.9894 28.341 81.0721 28.65 81.1916C28.959 81.3112 29.264 81.4954 29.5649 81.7442Z" fill="white"/>
<path d="M18.536 81.8373L17.9819 81.0393L20.016 76.7047C20.0538 76.6089 20.0592 76.5414 20.032 76.5023C19.994 76.4475 19.9289 76.429 19.8368 76.4466L15.0647 76.8382L14.5106 76.0403L20.378 71.9659L21.0136 72.8812L17.7982 75.114L16.9775 75.51L16.954 75.5263C16.8992 75.5643 16.8854 75.6029 16.9126 75.642C16.9289 75.6655 16.9741 75.6805 17.0482 75.687L20.9548 75.4267L21.3623 76.0134L19.7536 79.5829C19.7229 79.639 19.7185 79.6827 19.7402 79.714C19.7565 79.7375 19.7818 79.7489 19.8161 79.7482C19.8426 79.753 19.8688 79.7406 19.8947 79.7111L20.5525 79.0803L23.7678 76.8476L24.4034 77.7629L18.536 81.8373Z" fill="white"/>
<path d="M17.3388 65.4938C17.5972 66.2509 17.5886 66.9332 17.3128 67.5406C17.0339 68.1389 16.5613 68.5971 15.8949 68.9151C15.4807 69.1169 15.0979 69.2777 14.7463 69.3977C14.3858 69.5208 13.9754 69.6306 13.5153 69.7273C12.7845 69.8861 12.1304 69.8125 11.5529 69.5064C10.9634 69.1943 10.5394 68.6597 10.281 67.9025C10.0225 67.1454 10.0328 66.4676 10.3116 65.8693C10.5784 65.265 11.0494 64.8023 11.7248 64.4812C12.1481 64.2764 12.54 64.1124 12.9005 63.9894C13.2521 63.8694 13.6534 63.7626 14.1045 63.669C14.8263 63.5133 15.4819 63.5914 16.0715 63.9035C16.658 64.2065 17.0804 64.7366 17.3388 65.4938ZM16.4059 65.8122C16.2459 65.3435 15.9846 65.02 15.6219 64.8419C15.2471 64.6578 14.8462 64.6185 14.4193 64.724C14.0464 64.811 13.6662 64.9206 13.2786 65.0529C12.882 65.1883 12.505 65.337 12.1478 65.4992C11.7454 65.6768 11.4567 65.9514 11.2817 66.3232C11.0945 66.6889 11.081 67.1062 11.2409 67.5749C11.404 68.0527 11.6729 68.3836 12.0477 68.5676C12.4135 68.7548 12.8083 68.7911 13.2322 68.6766C13.656 68.5622 14.0437 68.4449 14.3953 68.325C14.7829 68.1927 15.1508 68.047 15.4991 67.8879C15.9073 67.6982 16.2005 67.422 16.3787 67.0593C16.5568 66.6966 16.5659 66.2809 16.4059 65.8122Z" fill="white"/>
<path d="M9.00399 58.3732L9.2326 60.5614L8.23795 60.6653L7.66198 55.1522L8.65663 55.0482L8.88523 57.2365L14.9952 56.5982L15.114 57.7349L9.00399 58.3732Z" fill="white"/>
<path d="M7.44476 50.5575L7.58098 49.4227L7.97815 49.4704C7.8401 49.2619 7.74195 49.0007 7.68371 48.6868C7.61602 48.3717 7.60204 48.0487 7.64177 47.7177C7.73713 46.9233 8.02898 46.33 8.51734 45.9378C9.00683 45.5361 9.62907 45.347 10.3841 45.3705C10.8047 45.3826 11.2231 45.4137 11.6392 45.4636C12.0363 45.5113 12.4549 45.5807 12.8948 45.6719C13.6339 45.8278 14.1984 46.1593 14.5884 46.6666C14.9701 47.1633 15.1132 47.8088 15.0178 48.6031C14.994 48.8017 14.9431 49.0258 14.8652 49.2755L14.3261 49.9302C14.2932 49.9647 14.2739 50.0055 14.2682 50.0528C14.2626 50.1001 14.2764 50.1449 14.3097 50.1873C14.3441 50.2202 14.3897 50.24 14.4464 50.2469L17.5103 50.6147L17.3741 51.7494L7.44476 50.5575ZM14.0379 48.615C14.1015 48.0855 14.0074 47.6712 13.7554 47.3724C13.5047 47.0641 13.1499 46.8632 12.691 46.7698C12.2784 46.6915 11.864 46.6273 11.4479 46.5774C11.0791 46.5331 10.7086 46.503 10.3364 46.4871C9.31204 46.4697 8.73971 46.9621 8.61938 47.9645C8.56034 48.4563 8.62785 48.8529 8.82188 49.1544C9.00646 49.4547 9.29261 49.6282 9.68032 49.6747L12.574 50.0221C12.9617 50.0686 13.2903 49.969 13.5596 49.7231C13.8195 49.4761 13.9789 49.1068 14.0379 48.615Z" fill="white"/>
<path d="M15.8763 39.8097C16.1298 39.1418 16.1531 38.463 15.9462 37.7733L16.8827 37.7619C17.0079 38.2373 17.0665 38.6467 17.0584 38.99C17.0415 39.3299 16.9502 39.718 16.7846 40.1544C16.4872 40.938 16.0448 41.473 15.4573 41.7594C14.8698 42.0458 14.2119 42.1017 13.4835 41.9272C13.0358 41.8184 12.6383 41.6981 12.291 41.5663C11.9348 41.4311 11.5487 41.254 11.1327 41.035C10.4863 40.698 10.0322 40.2303 9.7704 39.6317C9.51194 39.0243 9.51958 38.3599 9.79331 37.6386C10.1583 36.6769 10.7094 36.1373 11.4468 36.0198C12.1752 35.899 12.9401 35.9906 13.7415 36.2948L14.348 36.8306L12.8951 40.6189C13.2067 40.7372 13.5118 40.8326 13.8103 40.9051C14.2457 41.0194 14.6521 40.9954 15.0295 40.833C15.398 40.6672 15.6803 40.3261 15.8763 39.8097ZM10.7283 37.9935C10.556 38.4476 10.5571 38.8606 10.7318 39.2325C10.9064 39.6044 11.1874 39.8842 11.5746 40.0719C11.7281 40.1506 11.8627 40.2118 11.9785 40.2558L13.1292 37.2237C11.9003 36.7574 11.1 37.014 10.7283 37.9935Z" fill="white"/>
<path d="M14.9246 29.3416L13.703 31.1714L12.8713 30.6161L15.9491 26.0059L16.7808 26.5612L15.5592 28.391L20.6685 31.802L20.0339 32.7526L14.9246 29.3416Z" fill="white"/>
<path d="M18.6175 22.4267L19.4459 21.6393L21.2372 23.5241L22.3452 22.471C22.9252 21.9198 23.5152 21.635 24.1152 21.6166C24.7153 21.5982 25.2613 21.8479 25.7534 22.3657C26.2455 22.8835 26.4671 23.4415 26.4182 24.0399C26.3693 24.6382 26.0549 25.213 25.475 25.7641L23.5385 27.6046L18.6175 22.4267ZM24.786 25.0392C25.1105 24.7308 25.2803 24.4118 25.2955 24.0821C25.3175 23.7458 25.194 23.4361 24.925 23.153C24.656 22.87 24.353 22.7309 24.016 22.7358C23.6859 22.7341 23.3587 22.8875 23.0342 23.1959L21.9261 24.249L23.678 26.0923L24.786 25.0392Z" fill="white"/>
<path d="M35.8109 18.5296C35.0788 18.8522 34.3983 18.9023 33.7695 18.6798C33.1493 18.4535 32.6503 18.0177 32.2722 17.3724C32.0279 16.9597 31.8308 16.5834 31.6811 16.2435C31.5274 15.8948 31.3827 15.4955 31.2468 15.0454C31.0256 14.331 31.0408 13.6686 31.2922 13.0582C31.5523 12.444 32.0485 11.9755 32.7806 11.6529C33.1466 11.4916 33.4902 11.3974 33.8114 11.3704C34.1287 11.3347 34.484 11.3498 34.8774 11.4158L34.9381 12.4039C34.6037 12.3535 34.3015 12.3409 34.0316 12.3662C33.7617 12.3915 33.4874 12.4655 33.2085 12.5884C32.7465 12.792 32.4356 13.0903 32.2758 13.4834C32.1208 13.864 32.1186 14.2604 32.2691 14.6729C32.4312 15.1115 32.589 15.5051 32.7427 15.8537C32.8771 16.1588 33.0419 16.4973 33.237 16.8692C33.4486 17.2548 33.7489 17.5231 34.1382 17.6742C34.5236 17.8167 34.9473 17.7861 35.4092 17.5825C35.9757 17.3329 36.4382 16.9417 36.7968 16.409L37.4431 17.0609C37.2031 17.4373 36.9604 17.7368 36.715 17.9594C36.4696 18.1821 36.1683 18.3721 35.8109 18.5296Z" fill="white"/>
<path d="M40.6007 8.60495L41.5629 8.47066L44.5127 12.2422C44.5811 12.3192 44.639 12.3544 44.6861 12.3478C44.7521 12.3386 44.7981 12.2889 44.824 12.1988L46.6284 7.76365L47.5905 7.62936L48.578 14.7041L47.4743 14.8581L46.9332 10.9812L46.9503 10.07L46.9463 10.0417C46.9371 9.97568 46.9089 9.94596 46.8618 9.95254C46.8335 9.95649 46.7997 9.99005 46.7604 10.0532L45.2294 13.6568L44.522 13.7556L42.0628 10.7089C42.0266 10.6562 41.9896 10.6326 41.9519 10.6378C41.9236 10.6418 41.902 10.6592 41.8871 10.6901C41.8709 10.7116 41.8701 10.7406 41.8848 10.777L42.1507 11.6487L42.6918 15.5256L41.5882 15.6797L40.6007 8.60495Z" fill="white"/>
<path d="M55.8904 14.8593C55.098 14.7487 54.4929 14.4335 54.075 13.9135C53.6665 13.3949 53.4706 12.7665 53.487 12.0283C53.4936 11.5676 53.5226 11.1534 53.574 10.7855C53.6266 10.4082 53.7135 9.99234 53.8346 9.53803C54.0222 8.81411 54.3828 8.26339 54.9163 7.88587C55.4606 7.50023 56.1289 7.36271 56.9213 7.4733C57.7136 7.5839 58.314 7.8985 58.7225 8.41711C59.1417 8.92761 59.3424 9.55666 59.3246 10.3043C59.3167 10.7744 59.2864 11.1981 59.2337 11.5754C59.1824 11.9433 59.0968 12.3497 58.977 12.7946C58.7907 13.5091 58.4255 14.0591 57.8812 14.4448C57.3464 14.8317 56.6827 14.9699 55.8904 14.8593ZM56.0266 13.883C56.5172 13.9515 56.9237 13.8639 57.2461 13.6205C57.5794 13.3688 57.7951 13.0287 57.8934 12.6001C57.9838 12.228 58.0573 11.8392 58.114 11.4336C58.1719 11.0185 58.209 10.615 58.2252 10.223C58.248 9.78378 58.133 9.40229 57.8801 9.07849C57.6379 8.74657 57.2716 8.54638 56.781 8.47791C56.2811 8.40813 55.8645 8.49905 55.5313 8.75066C55.1994 8.99283 54.989 9.3289 54.9001 9.75887C54.8112 10.1888 54.7411 10.5878 54.6898 10.9556C54.6332 11.3613 54.5974 11.7554 54.5825 12.1379C54.5678 12.5879 54.6821 12.9741 54.9256 13.2966C55.1691 13.6191 55.5361 13.8145 56.0266 13.883Z" fill="white"/>
<path d="M66.2239 10.6653L64.1699 9.87695L64.5282 8.94329L69.7033 10.9295L69.345 11.8632L67.2909 11.0748L65.0897 16.8101L64.0227 16.4006L66.2239 10.6653Z" fill="white"/>
<path d="M73.9324 12.836L74.8806 13.4741L74.6573 13.8059C74.9057 13.7779 75.183 13.8095 75.489 13.9007C75.8003 13.9839 76.0943 14.1186 76.3709 14.3047C77.0346 14.7513 77.4299 15.2814 77.5567 15.8948C77.6914 16.5135 77.5763 17.1536 77.2116 17.815C77.0092 18.184 76.7911 18.5423 76.5571 18.89C76.3338 19.2219 76.0814 19.5629 75.7998 19.913C75.3244 20.5 74.7722 20.8516 74.1429 20.9678C73.527 21.0813 72.8871 20.9148 72.2233 20.4681C72.0574 20.3565 71.881 20.2091 71.6943 20.026L71.3569 19.2479C71.3412 19.203 71.3136 19.1672 71.2741 19.1406C71.2346 19.114 71.1884 19.1059 71.1355 19.1162C71.0906 19.1319 71.0521 19.1634 71.0202 19.2108L69.2974 21.771L68.3492 21.1329L73.9324 12.836ZM72.659 19.5904C73.1015 19.8881 73.5132 19.9929 73.8939 19.9048C74.2826 19.8219 74.623 19.5975 74.9152 19.2316C75.1729 18.8999 75.4187 18.5602 75.6526 18.2125C75.86 17.9043 76.0555 17.5882 76.2392 17.264C76.7213 16.36 76.5435 15.6262 75.7059 15.0626C75.295 14.7861 74.9111 14.6656 74.5544 14.701C74.2029 14.7285 73.9182 14.9043 73.7002 15.2283L72.0731 17.6462C71.855 17.9702 71.7941 18.3081 71.8904 18.6598C71.9919 19.0037 72.2481 19.3139 72.659 19.5904Z" fill="white"/>
<path d="M79.6874 25.2585C80.1681 25.7869 80.7628 26.1151 81.4714 26.243L81.0575 27.0831C80.577 26.9794 80.1855 26.8463 79.883 26.6837C79.5876 26.5146 79.2829 26.2575 78.9688 25.9123C78.4048 25.2923 78.1281 24.6556 78.1388 24.0021C78.1495 23.3486 78.3975 22.7366 78.883 22.1663C79.1827 21.8163 79.4699 21.5164 79.7447 21.2665C80.0265 21.0101 80.3592 20.746 80.7429 20.4742C81.336 20.0505 81.9587 19.8575 82.6109 19.8951C83.2696 19.9397 83.8585 20.2473 84.3776 20.818C85.0698 21.5789 85.3013 22.3146 85.0722 23.0252C84.8501 23.7294 84.4221 24.3699 83.788 24.9467L83.0356 25.2449L80.3159 22.234C80.0693 22.4583 79.8461 22.6871 79.6463 22.9204C79.3472 23.2569 79.1846 23.6301 79.1584 24.0402C79.1394 24.4438 79.3157 24.8499 79.6874 25.2585ZM83.6378 21.491C83.311 21.1316 82.9422 20.9457 82.5315 20.933C82.1208 20.9203 81.7442 21.0441 81.4015 21.3043C81.2619 21.4056 81.1462 21.4979 81.0547 21.5812L83.237 23.9801C84.2092 23.0957 84.3429 22.2659 83.6378 21.491Z" fill="white"/>
<path d="M89.4083 29.0836L88.3243 27.169L89.1946 26.6763L91.9256 31.5L91.0553 31.9927L89.9714 30.0782L84.6254 33.1048L84.0623 32.1102L89.4083 29.0836Z" fill="white"/>
<path d="M93.9162 35.5125L94.2443 36.6073L91.7536 37.3537L92.1924 38.818C92.422 39.5844 92.4095 40.2394 92.1548 40.7831C91.9001 41.3267 91.4307 41.701 90.7464 41.9061C90.0621 42.1111 89.4641 42.0567 88.9525 41.7427C88.4408 41.4287 88.0701 40.8886 87.8404 40.1222L87.0735 37.563L93.9162 35.5125ZM88.7984 39.8351C88.9269 40.2639 89.1348 40.5595 89.4221 40.722C89.7122 40.8936 90.0442 40.9234 90.4183 40.8113C90.7924 40.6992 91.0533 40.4917 91.2012 40.1889C91.3518 39.8952 91.3629 39.5339 91.2344 39.1051L90.7956 37.6408L88.3596 38.3708L88.7984 39.8351Z" fill="white"/>
</svg>
