<svg width="18" height="18" viewBox="0 0 18 18" fill="none" xmlns="http://www.w3.org/2000/svg">
<path d="M0.61576 17.5369C0.452649 17.5369 0.29767 17.4717 0.183492 17.3576C0.0285369 17.2027 -0.0366667 16.9744 0.0204221 16.7624L1.04803 12.9224C0.362963 11.6505 0.00409469 10.2156 0.00409469 8.76438C0.00409469 3.92971 3.93506 0 8.77126 0C13.6075 0 17.5385 3.92971 17.5385 8.76438C17.5385 13.5991 13.6075 17.5288 8.77126 17.5288C7.29511 17.5288 5.85164 17.1619 4.56306 16.4607L0.778879 17.5125C0.72179 17.5288 0.672849 17.5369 0.61576 17.5369ZM4.64459 15.197C4.75062 15.197 4.85665 15.2297 4.95451 15.2787C6.10444 15.9553 7.4256 16.314 8.77126 16.314C12.9306 16.314 16.3151 12.9305 16.3151 8.77253C16.3151 4.61457 12.9306 1.2311 8.77126 1.2311C4.61197 1.2311 1.22742 4.61457 1.22742 8.77253C1.22742 10.1015 1.5781 11.3978 2.2387 12.5392C2.32026 12.6778 2.34474 12.849 2.30396 13.0039L1.48841 16.0531L4.48964 15.2215C4.53857 15.2052 4.59566 15.197 4.64459 15.197Z" fill="black"/>
<path d="M11.0046 13.4672C10.499 13.4672 9.97715 13.3531 9.43079 13.1167C8.91705 12.8966 8.40331 12.6031 7.90588 12.2363C7.4166 11.8776 6.93554 11.47 6.49519 11.0298C6.05484 10.5814 5.64707 10.1086 5.28827 9.61949C4.92131 9.10592 4.62775 8.60049 4.41573 8.10322C4.1874 7.56519 4.07324 7.03531 4.07324 6.52989C4.07324 6.1712 4.13846 5.82881 4.26078 5.51089C4.39126 5.17665 4.60328 4.87502 4.88054 4.61416C5.40243 4.10058 6.15269 3.9131 6.74798 4.19842C6.95184 4.28809 7.12309 4.43483 7.25359 4.63048L8.19945 5.95924C8.2973 6.08967 8.37078 6.22825 8.42786 6.36684C8.49309 6.52988 8.53387 6.69293 8.53387 6.84782C8.53387 7.05977 8.4767 7.27172 8.36254 7.45921C8.28915 7.58149 8.18314 7.72823 8.04451 7.86681L7.9385 7.98094C7.98743 8.04616 8.04451 8.12768 8.13421 8.2255C8.30546 8.42115 8.49301 8.6331 8.69688 8.8369C8.90074 9.03255 9.10461 9.2282 9.30847 9.39939C9.40633 9.48091 9.48796 9.54613 9.55319 9.58689L9.66728 9.47276C9.81406 9.32602 9.96092 9.21189 10.1077 9.13853C10.3768 8.96733 10.7926 8.92657 11.1596 9.08146C11.29 9.13037 11.4205 9.20374 11.5591 9.30157L12.921 10.2635C13.1086 10.3939 13.2553 10.5733 13.3532 10.7771C13.4347 10.9809 13.4674 11.1602 13.4674 11.3477C13.4674 11.5923 13.4102 11.8287 13.3042 12.0569C13.1982 12.2689 13.0759 12.4564 12.9291 12.6276C12.6682 12.9129 12.3665 13.1249 12.0403 13.2634C11.7142 13.402 11.3634 13.4672 11.0046 13.4672ZM6.15266 5.29892C6.10373 5.29892 5.94068 5.29892 5.73681 5.50272C5.58188 5.64946 5.47584 5.80437 5.40245 5.97556C5.32906 6.14675 5.29643 6.3424 5.29643 6.53805C5.29643 6.88043 5.37797 7.24726 5.54106 7.63856C5.71231 8.04616 5.96513 8.47821 6.275 8.91027C6.59303 9.34233 6.95183 9.77438 7.35145 10.1738C7.75103 10.5651 8.17498 10.932 8.61533 11.258C9.03937 11.5678 9.47165 11.8124 9.90384 11.9999C10.5236 12.2689 11.0943 12.3341 11.5591 12.1385C11.7222 12.0732 11.869 11.9591 12.0158 11.8124C12.0892 11.7309 12.1464 11.6493 12.1953 11.5434C12.2197 11.4863 12.236 11.4211 12.236 11.364C12.236 11.3477 12.236 11.3233 12.2115 11.2744L10.8497 10.3287C10.7926 10.288 10.7355 10.2554 10.6866 10.239C10.654 10.2554 10.6051 10.2798 10.5154 10.3695L10.2056 10.6793C9.96908 10.9157 9.59397 10.9809 9.29225 10.8749L9.14546 10.8097C8.95791 10.7119 8.74581 10.5651 8.50932 10.3613C8.28099 10.1657 8.0609 9.96188 7.82442 9.73362C7.59609 9.49722 7.39222 9.27711 7.19651 9.04885C6.98445 8.79614 6.83767 8.59234 6.73981 8.42115L6.65013 8.2092C6.62567 8.12768 6.61748 8.03801 6.61748 7.95649C6.61748 7.72823 6.69906 7.52443 6.854 7.36139L7.16389 7.04346C7.25359 6.95379 7.28621 6.90489 7.30252 6.87228C7.27806 6.81521 7.24544 6.76629 7.20467 6.70923L6.25051 5.36416L6.15266 5.29892Z" fill="black"/>
<circle cx="8.53906" cy="9" r="6" fill="#EDEDED"/>
</svg>
