<svg width="21" height="20" viewBox="0 0 21 20" fill="none" xmlns="http://www.w3.org/2000/svg">
<path fill-rule="evenodd" clip-rule="evenodd" d="M2.16974 2.67119C0.0864953 4.93224 0.740043 7.55625 4.4991 12.0114C7.30963 15.3432 13.2146 19 15.7836 19C16.486 19 17.8466 18.1464 18.808 17.1037C20.5345 15.2301 20.5235 15.1812 17.8595 12.9319C15.3716 10.8302 15.0766 10.7731 14.0184 12.1942C12.5408 14.1783 9.51455 13.2967 7.51427 10.2988C6.12882 8.22244 6.14264 7.9871 7.71798 6.85658C9.32558 5.70161 9.33111 5.52601 7.82491 3.26949C5.93709 0.440006 4.37834 0.274365 2.16974 2.67119ZM7.27829 3.74559C8.13924 5.32417 8.05904 5.841 6.85058 6.50538C4.61524 7.73366 5.04479 9.52494 8.19915 12.1309C11.4438 14.8119 13.2211 15.0816 14.3696 13.0668C15.0785 11.8222 15.4287 11.8629 17.3811 13.4153C19.2772 14.9223 19.4155 15.3794 18.3554 16.633C17.6761 17.4368 16.4224 18.0949 15.5698 18.0949C12.9344 18.0949 5.75457 13.0478 3.66396 9.72498C1.40742 6.14061 1.18988 4.45161 2.7818 2.88842C4.44195 1.25826 6.09471 1.57325 7.27829 3.74559Z" fill="black" stroke="black" stroke-width="0.5"/>
</svg>
