<svg width="13" height="13" viewBox="0 0 13 13" fill="none" xmlns="http://www.w3.org/2000/svg">
<path fill-rule="evenodd" clip-rule="evenodd" d="M11.9608 0.0045516C11.8377 0.0261459 11.6775 0.0781163 11.5257 0.145689C11.3771 0.211835 11.1898 0.298718 10.3977 0.668994C10.0753 0.819694 6.80874 2.34973 6.38322 2.54935C6.14083 2.66304 5.86815 2.79072 5.77726 2.83305C5.68637 2.8754 5.57172 2.92921 5.52248 2.95264C5.47325 2.97607 5.3555 3.03125 5.26082 3.07525C5.16614 3.11925 5.04839 3.17453 4.99915 3.1981C4.94992 3.22166 4.57498 3.39737 4.16596 3.58856C3.75694 3.77975 3.382 3.9555 3.33277 3.9791C3.28354 4.0027 3.12241 4.0785 2.9747 4.14755C2.6241 4.31146 2.41478 4.40956 2.20348 4.50899C2.1088 4.55356 1.71218 4.73951 1.32209 4.92221C0.881366 5.12864 0.568526 5.28434 0.495784 5.33344C0.327452 5.44708 0.156131 5.63978 0.0917062 5.78795C0.0259322 5.93921 0 6.05833 0 6.20911C0 6.52925 0.14806 6.83154 0.414586 7.05557C0.592489 7.20511 0.680739 7.2464 1.39095 7.51236C2.2219 7.82356 3.06744 8.14053 3.16062 8.17575L3.22948 8.20179L3.36922 8.70755C3.44608 8.98571 3.58751 9.49952 3.68348 9.84933C4.18092 11.6624 4.21087 11.7613 4.33025 11.9852C4.45345 12.2162 4.59458 12.3418 4.79946 12.4027C4.98673 12.4583 5.24654 12.4163 5.41127 12.3036C5.45616 12.273 5.62157 12.1168 5.77884 11.9567C5.93612 11.7965 6.10236 11.628 6.14826 11.5822C6.19417 11.5365 6.36753 11.3606 6.53351 11.1914C6.6995 11.0222 6.85891 10.861 6.88776 10.8332L6.94022 10.7825L7.56376 11.3149C8.2786 11.9252 8.6423 12.2359 9.06184 12.5948C9.31086 12.8078 9.37547 12.8555 9.46811 12.8949C9.83649 13.0516 10.2248 13.0325 10.5536 12.8415C10.727 12.7408 10.94 12.487 11.04 12.2619C11.0818 12.1676 11.1008 12.0825 11.1764 11.6484C11.2247 11.3712 11.3236 10.8064 11.3961 10.3934C11.4686 9.98037 11.5744 9.37691 11.6313 9.05238C11.6881 8.72785 11.765 8.28991 11.8022 8.07918C11.8393 7.86845 11.9138 7.4443 11.9677 7.13663C12.0216 6.82896 12.0992 6.38758 12.14 6.15577C12.1809 5.92397 12.252 5.51706 12.2981 5.25154C12.3441 4.98602 12.3908 4.72049 12.4017 4.66149C12.4127 4.60248 12.4716 4.26799 12.5326 3.91818C12.5937 3.56836 12.6709 3.12697 12.7043 2.93732C12.8385 2.17423 12.9722 1.40731 12.986 1.32144C13.0069 1.19077 13.0039 0.918807 12.9801 0.79292C12.9108 0.426338 12.6574 0.129918 12.3298 0.0321997C12.2477 0.00770877 12.034 -0.00830689 11.9608 0.0045516ZM11.9951 1.15567C11.995 1.16729 11.9242 1.57784 11.8109 2.22466C11.725 2.71469 11.664 3.06294 11.5828 3.52737C11.5444 3.74653 11.5041 3.97412 11.4931 4.03312C11.4821 4.09213 11.4414 4.32317 11.4027 4.54654C11.3641 4.76992 11.3146 5.05268 11.2928 5.17491C11.2709 5.29713 11.2122 5.63162 11.1623 5.91822C11.1123 6.20481 11.0625 6.48758 11.0516 6.54658C11.0407 6.60559 10.9849 6.92284 10.9276 7.25158C10.7015 8.54828 10.603 9.11063 10.5839 9.2133C10.573 9.27231 10.523 9.55507 10.4729 9.84167C10.4229 10.1283 10.3582 10.4972 10.3293 10.6616C10.3005 10.826 10.2436 11.1497 10.203 11.3811C10.133 11.7797 10.1269 11.8043 10.0862 11.8523C10.0081 11.9445 9.90119 11.9089 9.67762 11.7165C9.59268 11.6433 9.20712 11.3141 8.82082 10.9847C8.43452 10.6553 7.96973 10.2589 7.78794 10.1038C7.60615 9.94863 7.33131 9.71411 7.17718 9.58263C7.02304 9.45115 6.8909 9.34357 6.88355 9.34357C6.87619 9.34357 6.78013 9.43495 6.67008 9.54664C6.56003 9.65834 6.42511 9.79454 6.37026 9.84933C6.31542 9.90412 6.13166 10.0901 5.96193 10.2627C5.79219 10.4353 5.55106 10.6796 5.42608 10.8057C5.3011 10.9317 5.17486 11.0595 5.14553 11.0896L5.09221 11.1444L5.10134 11.0872C5.10635 11.0558 5.13486 10.8558 5.16468 10.6428C5.19449 10.4298 5.24658 10.0589 5.28042 9.81868C5.31427 9.57845 5.37046 9.17844 5.40528 8.92977C5.46518 8.5021 5.47062 8.4755 5.50587 8.43766C5.52637 8.41565 5.6423 8.29537 5.76349 8.17037C5.88468 8.04537 6.0706 7.85263 6.17664 7.74206C6.28268 7.63148 6.51508 7.39016 6.69308 7.20577C6.87108 7.0214 7.09728 6.78689 7.19575 6.68465C7.29422 6.5824 7.51093 6.35778 7.67732 6.18549C7.84373 6.01321 8.08232 5.76577 8.20754 5.63565C8.57783 5.25086 8.60758 5.22001 9.11715 4.69214C9.38567 4.41397 9.70483 4.08293 9.82641 3.95649C9.94797 3.83005 10.123 3.64833 10.2154 3.55268C10.3078 3.45702 10.3959 3.3562 10.4112 3.32865C10.451 3.25692 10.4484 3.16089 10.4052 3.11287C10.3409 3.04127 10.2231 3.07723 9.98798 3.24016C9.8914 3.30709 9.66366 3.46408 9.48187 3.58905C9.30008 3.71402 8.97162 3.94028 8.75196 4.09184C8.37568 4.35147 8.04507 4.5794 7.09935 5.23118C6.15802 5.87996 5.61448 6.25465 5.24016 6.51284C5.0205 6.66435 4.66271 6.91087 4.44506 7.06063L4.04934 7.33296L3.23314 7.02661C2.78424 6.85811 2.12724 6.61221 1.77317 6.48016C1.41909 6.34811 1.12937 6.23583 1.12934 6.23065C1.12931 6.22549 1.41281 6.08844 1.75934 5.92611C2.10587 5.76378 2.52884 5.56541 2.69927 5.48532C2.86969 5.40523 3.06491 5.31347 3.13308 5.28144C3.20125 5.24941 3.47703 5.11998 3.74592 4.99383C4.01482 4.86768 4.25031 4.75705 4.26925 4.74797C4.28819 4.7389 4.61974 4.58371 5.00604 4.40309C5.7809 4.04082 8.59877 2.71953 8.82771 2.61113C8.90724 2.57348 9.04668 2.50793 9.13757 2.46546C9.22847 2.42299 9.59721 2.25056 9.95699 2.08228C10.3168 1.91398 10.8374 1.67127 11.1138 1.54288C11.6747 1.28243 11.7593 1.24294 11.8782 1.18586C11.9646 1.14434 11.9953 1.13642 11.9951 1.15567Z" fill="white"/>
</svg>
