<svg width="21" height="17" viewBox="0 0 21 17" fill="none" xmlns="http://www.w3.org/2000/svg">
<path fill-rule="evenodd" clip-rule="evenodd" d="M2.9393 1.09645C2.63009 1.1725 1.94833 1.62105 1.69322 1.91618C1.59707 2.02737 1.40262 2.35526 1.26094 2.64474C1.01976 3.13776 1.00329 3.5175 1.00047 8.64382C0.997529 14.0917 0.998868 14.1191 1.30379 14.6964C1.53881 15.1413 1.77825 15.3605 2.33226 15.6382L3.05433 16L10.2951 15.9992C14.7328 15.9988 17.7237 15.9474 18.0206 15.8663C18.7851 15.6576 19.3854 15.1921 19.7157 14.5516C20.02 13.9612 20.0203 13.955 19.9835 8.48947L19.9465 3.01842L19.5428 2.37684C19.2488 1.91 18.9439 1.63526 18.4226 1.36763L17.7064 1L10.4568 1.01526C6.46944 1.02368 3.08661 1.06013 2.9393 1.09645ZM17.9995 2.11579C18.4556 2.3475 18.9422 2.92171 18.9422 3.22829C18.9422 3.34882 17.1796 5.20842 15.0251 7.36066L11.1081 11.2738L10.3952 11.2684C9.71501 11.2634 9.64403 11.2283 8.85594 10.5066C6.24433 8.11487 1.80102 3.68224 1.80102 3.46855C1.80102 3.05132 2.19594 2.44763 2.64455 2.17895C3.0558 1.9325 3.3689 1.92197 10.3448 1.92158C16.5036 1.92118 17.6749 1.95079 17.9995 2.11579ZM19.21 9.02632C19.21 11.4145 19.1611 13.3684 19.1013 13.3684C18.9789 13.3684 14.5855 9.75855 14.4545 9.5504C14.3707 9.41697 18.8874 4.68421 19.0987 4.68421C19.1599 4.68421 19.21 6.63816 19.21 9.02632ZM4.19663 7.23539C5.47699 8.49513 6.34998 9.45276 6.29615 9.53842C6.15487 9.76289 2.03577 13.2368 1.91083 13.2368C1.85043 13.2368 1.80102 11.4013 1.80102 9.1579C1.80102 6.91447 1.84695 5.07895 1.90293 5.07895C1.95904 5.07895 2.99126 6.04934 4.19663 7.23539ZM7.9958 10.9482C9.03418 11.9105 9.5602 12.1842 10.3716 12.1842C11.1996 12.1842 11.8259 11.8608 12.7821 10.9395L13.6525 10.1008L16.1299 12.1216C17.4925 13.233 18.6265 14.2332 18.65 14.3441C18.6743 14.4589 18.5016 14.66 18.2482 14.8118C17.8162 15.0705 17.596 15.078 10.3403 15.0784L2.87663 15.0789L2.45198 14.7062L2.02734 14.3334L4.49205 12.2097C5.84767 11.0418 6.97952 10.0845 7.00737 10.0825C7.03536 10.0805 7.48009 10.4701 7.9958 10.9482Z" fill="black" stroke="black" stroke-width="0.3"/>
</svg>
