<svg width="18" height="18" viewBox="0 0 18 18" fill="none" xmlns="http://www.w3.org/2000/svg">
<path fill-rule="evenodd" clip-rule="evenodd" d="M16.5611 0.00630222C16.3907 0.036202 16.1689 0.108161 15.9587 0.201723C15.7529 0.293311 15.4936 0.41361 14.3968 0.926299C13.9504 1.13496 9.42748 3.25348 8.8383 3.52987C8.5027 3.68729 8.12514 3.86408 7.99928 3.92269C7.87343 3.98132 7.71468 4.05583 7.64651 4.08827C7.57834 4.12072 7.41531 4.19711 7.28421 4.25804C7.15311 4.31896 6.99008 4.3955 6.92191 4.42814C6.85374 4.46076 6.33459 4.70405 5.76826 4.96878C5.20192 5.23351 4.68278 5.47684 4.6146 5.50952C4.54643 5.5422 4.32333 5.64716 4.11882 5.74276C3.63337 5.96971 3.34355 6.10554 3.05098 6.24322C2.91988 6.30493 2.37071 6.5624 1.83059 6.81537C1.22035 7.10119 0.78719 7.31677 0.68647 7.38476C0.453394 7.54211 0.216181 7.80892 0.126978 8.01408C0.0359061 8.22353 0 8.38845 0 8.59722C0 9.0405 0.205007 9.45905 0.574041 9.76926C0.82037 9.97631 0.942562 10.0335 1.92593 10.4017C3.07647 10.8326 4.24723 11.2715 4.37625 11.3203L4.47159 11.3563L4.66508 12.0566C4.7715 12.4418 4.96732 13.1532 5.10021 13.6375C5.78896 16.1479 5.83044 16.2849 5.99572 16.5949C6.16631 16.9148 6.36173 17.0887 6.64541 17.173C6.90471 17.25 7.26444 17.1918 7.49253 17.0358C7.55468 16.9933 7.78371 16.7771 8.00148 16.5554C8.21924 16.3336 8.44942 16.1003 8.51297 16.0369C8.57655 15.9736 8.81658 15.7301 9.0464 15.4958C9.27623 15.2616 9.49695 15.0384 9.5369 14.9998L9.60953 14.9297L10.4729 15.6668C11.4627 16.5118 11.9663 16.942 12.5472 17.4389C12.892 17.7339 12.9814 17.7999 13.1097 17.8545C13.6198 18.0714 14.1574 18.045 14.6127 17.7806C14.8528 17.6411 15.1477 17.2896 15.2861 16.978C15.3441 16.8475 15.3703 16.7297 15.4751 16.1286C15.542 15.7447 15.6788 14.9628 15.7792 14.3909C15.8796 13.819 16.0261 12.9834 16.1049 12.5341C16.1836 12.0847 16.2901 11.4783 16.3414 11.1866C16.3928 10.8948 16.496 10.3075 16.5706 9.88149C16.6453 9.45549 16.7527 8.84434 16.8093 8.52337C16.8659 8.20241 16.9644 7.63901 17.0281 7.27136C17.0919 6.90371 17.1565 6.53607 17.1716 6.45437C17.1868 6.37267 17.2683 5.90953 17.3529 5.42517C17.4374 4.94081 17.5444 4.32966 17.5906 4.06705C17.7764 3.01048 17.9615 1.94858 17.9806 1.82968C18.0096 1.64875 18.0054 1.27219 17.9725 1.09789C17.8765 0.590314 17.5257 0.179887 17.072 0.0445842C16.9583 0.0106737 16.6625 -0.0115018 16.5611 0.00630222ZM16.6086 1.60016C16.6084 1.61624 16.5105 2.1847 16.3535 3.08029C16.2346 3.7588 16.1502 4.241 16.0377 4.88404C15.9846 5.1875 15.9287 5.50262 15.9135 5.58432C15.8982 5.66602 15.842 5.98592 15.7884 6.29521C15.7349 6.6045 15.6663 6.99602 15.6361 7.16526C15.6059 7.33449 15.5246 7.79763 15.4554 8.19446C15.3863 8.59128 15.3173 8.9828 15.3022 9.0645C15.2871 9.1462 15.2099 9.58547 15.1305 10.0406C14.8175 11.8361 14.681 12.6147 14.6547 12.7569C14.6395 12.8386 14.5704 13.2301 14.501 13.6269C14.4316 14.0238 14.3422 14.5346 14.3022 14.7622C14.2622 14.9898 14.1834 15.4381 14.1272 15.7584C14.0303 16.3104 14.0219 16.3444 13.9655 16.4109C13.8574 16.5385 13.7093 16.4892 13.3998 16.2228C13.2822 16.1215 12.7483 15.6656 12.2134 15.2096C11.6786 14.7535 11.035 14.2047 10.7833 13.9898C10.5316 13.775 10.151 13.4503 9.93763 13.2683C9.72421 13.0862 9.54125 12.9373 9.53107 12.9373C9.52088 12.9373 9.38788 13.0638 9.2355 13.2184C9.08313 13.3731 8.89631 13.5617 8.82036 13.6375C8.74443 13.7134 8.49 13.971 8.25497 14.2099C8.01995 14.4489 7.68608 14.7872 7.51303 14.9617C7.33999 15.1363 7.16518 15.3132 7.12459 15.3549L7.05075 15.4307L7.0634 15.3516C7.07034 15.308 7.10981 15.0311 7.15109 14.7362C7.19238 14.4412 7.26449 13.9277 7.31135 13.5951C7.35822 13.2625 7.43602 12.7086 7.48424 12.3643C7.56717 11.7721 7.5747 11.7353 7.62352 11.6829C7.65189 11.6524 7.81241 11.4859 7.98021 11.3128C8.14802 11.1397 8.40545 10.8729 8.55227 10.7198C8.6991 10.5667 9.02088 10.2325 9.26735 9.97722C9.51381 9.72193 9.82701 9.39724 9.96335 9.25568C10.0997 9.11409 10.3998 8.80308 10.6301 8.56452C10.8605 8.32598 11.1909 7.98337 11.3643 7.80321C11.877 7.27043 11.9182 7.22771 12.6237 6.49681C12.9955 6.11166 13.4375 5.65329 13.6058 5.47822C13.7741 5.30315 14.0165 5.05154 14.1444 4.9191C14.2723 4.78664 14.3943 4.64705 14.4155 4.6089C14.4706 4.50959 14.467 4.37662 14.4072 4.31013C14.3181 4.21099 14.155 4.26078 13.8295 4.48637C13.6958 4.57904 13.3804 4.79642 13.1287 4.96946C12.877 5.14249 12.4222 5.45577 12.1181 5.66562C11.5971 6.02512 11.1393 6.34071 9.82987 7.24318C8.52649 8.14149 7.77389 8.66029 7.25561 9.01777C6.95146 9.22756 6.45606 9.56889 6.1547 9.77626L5.60678 10.1533L4.47666 9.72915C3.8551 9.49585 2.94541 9.15537 2.45516 8.97253C1.96489 8.78969 1.56374 8.63423 1.5637 8.62706C1.56366 8.61991 1.95619 8.43015 2.43602 8.20539C2.91582 7.98062 3.50147 7.70596 3.73745 7.59506C3.97342 7.48416 4.24372 7.35711 4.33811 7.31276C4.4325 7.26841 4.81435 7.0892 5.18666 6.91454C5.55898 6.73987 5.88505 6.58668 5.91127 6.57412C5.93749 6.56155 6.39657 6.34667 6.93144 6.09659C8.00432 5.59498 11.906 3.76551 12.223 3.61541C12.3331 3.56328 12.5262 3.47251 12.652 3.41371C12.7779 3.35491 13.2884 3.11616 13.7866 2.88316C14.2848 2.65013 15.0056 2.31406 15.3884 2.1363C16.165 1.77567 16.2821 1.72099 16.4467 1.64196C16.5664 1.58448 16.6089 1.57351 16.6086 1.60016Z" fill="black"/>
<path d="M13.6846 3.45305L15.5842 5.77496L7.89955 12.0621L4.5 9.80768L13.6846 3.45305Z" fill="#EDEDED"/>
</svg>
